<svg width="420" height="420" viewBox="0 0 420 420" xmlns="http://www.w3.org/2000/svg">
  <rect width="100%" height="100%" fill="#0d1117" />
  <g>
    <rect
        x="0"
        y="0"
        width="20"
        height="20"
        rx="4"
        fill="#39d353"
      />
      <rect
        x="28"
        y="0"
        width="20"
        height="20"
        rx="4"
        fill="#39d353"
      />
      <rect
        x="56"
        y="0"
        width="20"
        height="20"
        rx="4"
        fill="#39d353"
      />
      <rect
        x="84"
        y="0"
        width="20"
        height="20"
        rx="4"
        fill="#39d353"
      />
      <rect
        x="112"
        y="0"
        width="20"
        height="20"
        rx="4"
        fill="#39d353"
      />
      <rect
        x="140"
        y="0"
        width="20"
        height="20"
        rx="4"
        fill="#39d353"
      />
      <rect
        x="168"
        y="0"
        width="20"
        height="20"
        rx="4"
        fill="#39d353"
      />
      <rect
        x="196"
        y="0"
        width="20"
        height="20"
        rx="4"
        fill="#39d353"
      />
      <rect
        x="224"
        y="0"
        width="20"
        height="20"
        rx="4"
        fill="#39d353"
      />
      <rect
        x="252"
        y="0"
        width="20"
        height="20"
        rx="4"
        fill="#39d353"
      />
      <rect
        x="280"
        y="0"
        width="20"
        height="20"
        rx="4"
        fill="#39d353"
      />
      <rect
        x="308"
        y="0"
        width="20"
        height="20"
        rx="4"
        fill="#39d353"
      />
      <rect
        x="336"
        y="0"
        width="20"
        height="20"
        rx="4"
        fill="#39d353"
      />
      <rect
        x="364"
        y="0"
        width="20"
        height="20"
        rx="4"
        fill="#39d353"
      />
      <rect
        x="392"
        y="0"
        width="20"
        height="20"
        rx="4"
        fill="#39d353"
      />
      <rect
        x="0"
        y="28"
        width="20"
        height="20"
        rx="4"
        fill="#39d353"
      />
      <rect
        x="28"
        y="28"
        width="20"
        height="20"
        rx="4"
        fill="#39d353"
      />
      <rect
        x="56"
        y="28"
        width="20"
        height="20"
        rx="4"
        fill="#39d353"
      />
      <rect
        x="84"
        y="28"
        width="20"
        height="20"
        rx="4"
        fill="#39d353"
      />
      <rect
        x="112"
        y="28"
        width="20"
        height="20"
        rx="4"
        fill="#39d353"
      />
      <rect
        x="140"
        y="28"
        width="20"
        height="20"
        rx="4"
        fill="#39d353"
      />
      <rect
        x="168"
        y="28"
        width="20"
        height="20"
        rx="4"
        fill="#39d353"
      />
      <rect
        x="196"
        y="28"
        width="20"
        height="20"
        rx="4"
        fill="#39d353"
      />
      <rect
        x="224"
        y="28"
        width="20"
        height="20"
        rx="4"
        fill="#39d353"
      />
      <rect
        x="252"
        y="28"
        width="20"
        height="20"
        rx="4"
        fill="#39d353"
      />
      <rect
        x="280"
        y="28"
        width="20"
        height="20"
        rx="4"
        fill="#39d353"
      />
      <rect
        x="308"
        y="28"
        width="20"
        height="20"
        rx="4"
        fill="#39d353"
      />
      <rect
        x="336"
        y="28"
        width="20"
        height="20"
        rx="4"
        fill="#39d353"
      />
      <rect
        x="364"
        y="28"
        width="20"
        height="20"
        rx="4"
        fill="#39d353"
      />
      <rect
        x="392"
        y="28"
        width="20"
        height="20"
        rx="4"
        fill="#39d353"
      />
      <rect
        x="0"
        y="56"
        width="20"
        height="20"
        rx="4"
        fill="#39d353"
      />
      <rect
        x="28"
        y="56"
        width="20"
        height="20"
        rx="4"
        fill="#39d353"
      />
      <rect
        x="56"
        y="56"
        width="20"
        height="20"
        rx="4"
        fill="#39d353"
      />
      <rect
        x="84"
        y="56"
        width="20"
        height="20"
        rx="4"
        fill="#39d353"
      />
      <rect
        x="112"
        y="56"
        width="20"
        height="20"
        rx="4"
        fill="#39d353"
      />
      <rect
        x="140"
        y="56"
        width="20"
        height="20"
        rx="4"
        fill="#39d353"
      />
      <rect
        x="168"
        y="56"
        width="20"
        height="20"
        rx="4"
        fill="#0e4429"
      />
      <rect
        x="196"
        y="56"
        width="20"
        height="20"
        rx="4"
        fill="#0d1117"
      />
      <rect
        x="224"
        y="56"
        width="20"
        height="20"
        rx="4"
        fill="#0e4429"
      />
      <rect
        x="252"
        y="56"
        width="20"
        height="20"
        rx="4"
        fill="#0e4429"
      />
      <rect
        x="280"
        y="56"
        width="20"
        height="20"
        rx="4"
        fill="#39d353"
      />
      <rect
        x="308"
        y="56"
        width="20"
        height="20"
        rx="4"
        fill="#39d353"
      />
      <rect
        x="336"
        y="56"
        width="20"
        height="20"
        rx="4"
        fill="#39d353"
      />
      <rect
        x="364"
        y="56"
        width="20"
        height="20"
        rx="4"
        fill="#39d353"
      />
      <rect
        x="392"
        y="56"
        width="20"
        height="20"
        rx="4"
        fill="#39d353"
      />
      <rect
        x="0"
        y="84"
        width="20"
        height="20"
        rx="4"
        fill="#39d353"
      />
      <rect
        x="28"
        y="84"
        width="20"
        height="20"
        rx="4"
        fill="#39d353"
      />
      <rect
        x="56"
        y="84"
        width="20"
        height="20"
        rx="4"
        fill="#39d353"
      />
      <rect
        x="84"
        y="84"
        width="20"
        height="20"
        rx="4"
        fill="#39d353"
      />
      <rect
        x="112"
        y="84"
        width="20"
        height="20"
        rx="4"
        fill="#39d353"
      />
      <rect
        x="140"
        y="84"
        width="20"
        height="20"
        rx="4"
        fill="#39d353"
      />
      <rect
        x="168"
        y="84"
        width="20"
        height="20"
        rx="4"
        fill="#0d1117"
      />
      <rect
        x="196"
        y="84"
        width="20"
        height="20"
        rx="4"
        fill="#0e4429"
      />
      <rect
        x="224"
        y="84"
        width="20"
        height="20"
        rx="4"
        fill="#26a641"
      />
      <rect
        x="252"
        y="84"
        width="20"
        height="20"
        rx="4"
        fill="#0d1117"
      />
      <rect
        x="280"
        y="84"
        width="20"
        height="20"
        rx="4"
        fill="#26a641"
      />
      <rect
        x="308"
        y="84"
        width="20"
        height="20"
        rx="4"
        fill="#39d353"
      />
      <rect
        x="336"
        y="84"
        width="20"
        height="20"
        rx="4"
        fill="#39d353"
      />
      <rect
        x="364"
        y="84"
        width="20"
        height="20"
        rx="4"
        fill="#39d353"
      />
      <rect
        x="392"
        y="84"
        width="20"
        height="20"
        rx="4"
        fill="#39d353"
      />
      <rect
        x="0"
        y="112"
        width="20"
        height="20"
        rx="4"
        fill="#39d353"
      />
      <rect
        x="28"
        y="112"
        width="20"
        height="20"
        rx="4"
        fill="#39d353"
      />
      <rect
        x="56"
        y="112"
        width="20"
        height="20"
        rx="4"
        fill="#39d353"
      />
      <rect
        x="84"
        y="112"
        width="20"
        height="20"
        rx="4"
        fill="#39d353"
      />
      <rect
        x="112"
        y="112"
        width="20"
        height="20"
        rx="4"
        fill="#39d353"
      />
      <rect
        x="140"
        y="112"
        width="20"
        height="20"
        rx="4"
        fill="#39d353"
      />
      <rect
        x="168"
        y="112"
        width="20"
        height="20"
        rx="4"
        fill="#0d1117"
      />
      <rect
        x="196"
        y="112"
        width="20"
        height="20"
        rx="4"
        fill="#39d353"
      />
      <rect
        x="224"
        y="112"
        width="20"
        height="20"
        rx="4"
        fill="#26a641"
      />
      <rect
        x="252"
        y="112"
        width="20"
        height="20"
        rx="4"
        fill="#0d1117"
      />
      <rect
        x="280"
        y="112"
        width="20"
        height="20"
        rx="4"
        fill="#0e4429"
      />
      <rect
        x="308"
        y="112"
        width="20"
        height="20"
        rx="4"
        fill="#39d353"
      />
      <rect
        x="336"
        y="112"
        width="20"
        height="20"
        rx="4"
        fill="#39d353"
      />
      <rect
        x="364"
        y="112"
        width="20"
        height="20"
        rx="4"
        fill="#39d353"
      />
      <rect
        x="392"
        y="112"
        width="20"
        height="20"
        rx="4"
        fill="#39d353"
      />
      <rect
        x="0"
        y="140"
        width="20"
        height="20"
        rx="4"
        fill="#39d353"
      />
      <rect
        x="28"
        y="140"
        width="20"
        height="20"
        rx="4"
        fill="#39d353"
      />
      <rect
        x="56"
        y="140"
        width="20"
        height="20"
        rx="4"
        fill="#39d353"
      />
      <rect
        x="84"
        y="140"
        width="20"
        height="20"
        rx="4"
        fill="#39d353"
      />
      <rect
        x="112"
        y="140"
        width="20"
        height="20"
        rx="4"
        fill="#39d353"
      />
      <rect
        x="140"
        y="140"
        width="20"
        height="20"
        rx="4"
        fill="#39d353"
      />
      <rect
        x="168"
        y="140"
        width="20"
        height="20"
        rx="4"
        fill="#0e4429"
      />
      <rect
        x="196"
        y="140"
        width="20"
        height="20"
        rx="4"
        fill="#39d353"
      />
      <rect
        x="224"
        y="140"
        width="20"
        height="20"
        rx="4"
        fill="#26a641"
      />
      <rect
        x="252"
        y="140"
        width="20"
        height="20"
        rx="4"
        fill="#0e4429"
      />
      <rect
        x="280"
        y="140"
        width="20"
        height="20"
        rx="4"
        fill="#39d353"
      />
      <rect
        x="308"
        y="140"
        width="20"
        height="20"
        rx="4"
        fill="#26a641"
      />
      <rect
        x="336"
        y="140"
        width="20"
        height="20"
        rx="4"
        fill="#39d353"
      />
      <rect
        x="364"
        y="140"
        width="20"
        height="20"
        rx="4"
        fill="#39d353"
      />
      <rect
        x="392"
        y="140"
        width="20"
        height="20"
        rx="4"
        fill="#39d353"
      />
      <rect
        x="0"
        y="168"
        width="20"
        height="20"
        rx="4"
        fill="#39d353"
      />
      <rect
        x="28"
        y="168"
        width="20"
        height="20"
        rx="4"
        fill="#39d353"
      />
      <rect
        x="56"
        y="168"
        width="20"
        height="20"
        rx="4"
        fill="#39d353"
      />
      <rect
        x="84"
        y="168"
        width="20"
        height="20"
        rx="4"
        fill="#39d353"
      />
      <rect
        x="112"
        y="168"
        width="20"
        height="20"
        rx="4"
        fill="#39d353"
      />
      <rect
        x="140"
        y="168"
        width="20"
        height="20"
        rx="4"
        fill="#39d353"
      />
      <rect
        x="168"
        y="168"
        width="20"
        height="20"
        rx="4"
        fill="#26a641"
      />
      <rect
        x="196"
        y="168"
        width="20"
        height="20"
        rx="4"
        fill="#39d353"
      />
      <rect
        x="224"
        y="168"
        width="20"
        height="20"
        rx="4"
        fill="#26a641"
      />
      <rect
        x="252"
        y="168"
        width="20"
        height="20"
        rx="4"
        fill="#0e4429"
      />
      <rect
        x="280"
        y="168"
        width="20"
        height="20"
        rx="4"
        fill="#0e4429"
      />
      <rect
        x="308"
        y="168"
        width="20"
        height="20"
        rx="4"
        fill="#26a641"
      />
      <rect
        x="336"
        y="168"
        width="20"
        height="20"
        rx="4"
        fill="#39d353"
      />
      <rect
        x="364"
        y="168"
        width="20"
        height="20"
        rx="4"
        fill="#39d353"
      />
      <rect
        x="392"
        y="168"
        width="20"
        height="20"
        rx="4"
        fill="#39d353"
      />
      <rect
        x="0"
        y="196"
        width="20"
        height="20"
        rx="4"
        fill="#39d353"
      />
      <rect
        x="28"
        y="196"
        width="20"
        height="20"
        rx="4"
        fill="#39d353"
      />
      <rect
        x="56"
        y="196"
        width="20"
        height="20"
        rx="4"
        fill="#39d353"
      />
      <rect
        x="84"
        y="196"
        width="20"
        height="20"
        rx="4"
        fill="#39d353"
      />
      <rect
        x="112"
        y="196"
        width="20"
        height="20"
        rx="4"
        fill="#26a641"
      />
      <rect
        x="140"
        y="196"
        width="20"
        height="20"
        rx="4"
        fill="#0e4429"
      />
      <rect
        x="168"
        y="196"
        width="20"
        height="20"
        rx="4"
        fill="#26a641"
      />
      <rect
        x="196"
        y="196"
        width="20"
        height="20"
        rx="4"
        fill="#39d353"
      />
      <rect
        x="224"
        y="196"
        width="20"
        height="20"
        rx="4"
        fill="#26a641"
      />
      <rect
        x="252"
        y="196"
        width="20"
        height="20"
        rx="4"
        fill="#26a641"
      />
      <rect
        x="280"
        y="196"
        width="20"
        height="20"
        rx="4"
        fill="#39d353"
      />
      <rect
        x="308"
        y="196"
        width="20"
        height="20"
        rx="4"
        fill="#39d353"
      />
      <rect
        x="336"
        y="196"
        width="20"
        height="20"
        rx="4"
        fill="#39d353"
      />
      <rect
        x="364"
        y="196"
        width="20"
        height="20"
        rx="4"
        fill="#39d353"
      />
      <rect
        x="392"
        y="196"
        width="20"
        height="20"
        rx="4"
        fill="#39d353"
      />
      <rect
        x="0"
        y="224"
        width="20"
        height="20"
        rx="4"
        fill="#39d353"
      />
      <rect
        x="28"
        y="224"
        width="20"
        height="20"
        rx="4"
        fill="#26a641"
      />
      <rect
        x="56"
        y="224"
        width="20"
        height="20"
        rx="4"
        fill="#0e4429"
      />
      <rect
        x="84"
        y="224"
        width="20"
        height="20"
        rx="4"
        fill="#0d1117"
      />
      <rect
        x="112"
        y="224"
        width="20"
        height="20"
        rx="4"
        fill="#0e4429"
      />
      <rect
        x="140"
        y="224"
        width="20"
        height="20"
        rx="4"
        fill="#26a641"
      />
      <rect
        x="168"
        y="224"
        width="20"
        height="20"
        rx="4"
        fill="#39d353"
      />
      <rect
        x="196"
        y="224"
        width="20"
        height="20"
        rx="4"
        fill="#39d353"
      />
      <rect
        x="224"
        y="224"
        width="20"
        height="20"
        rx="4"
        fill="#39d353"
      />
      <rect
        x="252"
        y="224"
        width="20"
        height="20"
        rx="4"
        fill="#39d353"
      />
      <rect
        x="280"
        y="224"
        width="20"
        height="20"
        rx="4"
        fill="#39d353"
      />
      <rect
        x="308"
        y="224"
        width="20"
        height="20"
        rx="4"
        fill="#39d353"
      />
      <rect
        x="336"
        y="224"
        width="20"
        height="20"
        rx="4"
        fill="#39d353"
      />
      <rect
        x="364"
        y="224"
        width="20"
        height="20"
        rx="4"
        fill="#39d353"
      />
      <rect
        x="392"
        y="224"
        width="20"
        height="20"
        rx="4"
        fill="#39d353"
      />
      <rect
        x="0"
        y="252"
        width="20"
        height="20"
        rx="4"
        fill="#26a641"
      />
      <rect
        x="28"
        y="252"
        width="20"
        height="20"
        rx="4"
        fill="#0e4429"
      />
      <rect
        x="56"
        y="252"
        width="20"
        height="20"
        rx="4"
        fill="#0e4429"
      />
      <rect
        x="84"
        y="252"
        width="20"
        height="20"
        rx="4"
        fill="#39d353"
      />
      <rect
        x="112"
        y="252"
        width="20"
        height="20"
        rx="4"
        fill="#39d353"
      />
      <rect
        x="140"
        y="252"
        width="20"
        height="20"
        rx="4"
        fill="#39d353"
      />
      <rect
        x="168"
        y="252"
        width="20"
        height="20"
        rx="4"
        fill="#39d353"
      />
      <rect
        x="196"
        y="252"
        width="20"
        height="20"
        rx="4"
        fill="#39d353"
      />
      <rect
        x="224"
        y="252"
        width="20"
        height="20"
        rx="4"
        fill="#26a641"
      />
      <rect
        x="252"
        y="252"
        width="20"
        height="20"
        rx="4"
        fill="#39d353"
      />
      <rect
        x="280"
        y="252"
        width="20"
        height="20"
        rx="4"
        fill="#39d353"
      />
      <rect
        x="308"
        y="252"
        width="20"
        height="20"
        rx="4"
        fill="#39d353"
      />
      <rect
        x="336"
        y="252"
        width="20"
        height="20"
        rx="4"
        fill="#39d353"
      />
      <rect
        x="364"
        y="252"
        width="20"
        height="20"
        rx="4"
        fill="#39d353"
      />
      <rect
        x="392"
        y="252"
        width="20"
        height="20"
        rx="4"
        fill="#39d353"
      />
      <rect
        x="0"
        y="280"
        width="20"
        height="20"
        rx="4"
        fill="#26a641"
      />
      <rect
        x="28"
        y="280"
        width="20"
        height="20"
        rx="4"
        fill="#39d353"
      />
      <rect
        x="56"
        y="280"
        width="20"
        height="20"
        rx="4"
        fill="#39d353"
      />
      <rect
        x="84"
        y="280"
        width="20"
        height="20"
        rx="4"
        fill="#39d353"
      />
      <rect
        x="112"
        y="280"
        width="20"
        height="20"
        rx="4"
        fill="#39d353"
      />
      <rect
        x="140"
        y="280"
        width="20"
        height="20"
        rx="4"
        fill="#39d353"
      />
      <rect
        x="168"
        y="280"
        width="20"
        height="20"
        rx="4"
        fill="#26a641"
      />
      <rect
        x="196"
        y="280"
        width="20"
        height="20"
        rx="4"
        fill="#26a641"
      />
      <rect
        x="224"
        y="280"
        width="20"
        height="20"
        rx="4"
        fill="#0e4429"
      />
      <rect
        x="252"
        y="280"
        width="20"
        height="20"
        rx="4"
        fill="#0d1117"
      />
      <rect
        x="280"
        y="280"
        width="20"
        height="20"
        rx="4"
        fill="#0e4429"
      />
      <rect
        x="308"
        y="280"
        width="20"
        height="20"
        rx="4"
        fill="#39d353"
      />
      <rect
        x="336"
        y="280"
        width="20"
        height="20"
        rx="4"
        fill="#39d353"
      />
      <rect
        x="364"
        y="280"
        width="20"
        height="20"
        rx="4"
        fill="#39d353"
      />
      <rect
        x="392"
        y="280"
        width="20"
        height="20"
        rx="4"
        fill="#39d353"
      />
      <rect
        x="0"
        y="308"
        width="20"
        height="20"
        rx="4"
        fill="#0e4429"
      />
      <rect
        x="28"
        y="308"
        width="20"
        height="20"
        rx="4"
        fill="#0e4429"
      />
      <rect
        x="56"
        y="308"
        width="20"
        height="20"
        rx="4"
        fill="#26a641"
      />
      <rect
        x="84"
        y="308"
        width="20"
        height="20"
        rx="4"
        fill="#26a641"
      />
      <rect
        x="112"
        y="308"
        width="20"
        height="20"
        rx="4"
        fill="#39d353"
      />
      <rect
        x="140"
        y="308"
        width="20"
        height="20"
        rx="4"
        fill="#39d353"
      />
      <rect
        x="168"
        y="308"
        width="20"
        height="20"
        rx="4"
        fill="#39d353"
      />
      <rect
        x="196"
        y="308"
        width="20"
        height="20"
        rx="4"
        fill="#26a641"
      />
      <rect
        x="224"
        y="308"
        width="20"
        height="20"
        rx="4"
        fill="#26a641"
      />
      <rect
        x="252"
        y="308"
        width="20"
        height="20"
        rx="4"
        fill="#0e4429"
      />
      <rect
        x="280"
        y="308"
        width="20"
        height="20"
        rx="4"
        fill="#0e4429"
      />
      <rect
        x="308"
        y="308"
        width="20"
        height="20"
        rx="4"
        fill="#0e4429"
      />
      <rect
        x="336"
        y="308"
        width="20"
        height="20"
        rx="4"
        fill="#39d353"
      />
      <rect
        x="364"
        y="308"
        width="20"
        height="20"
        rx="4"
        fill="#39d353"
      />
      <rect
        x="392"
        y="308"
        width="20"
        height="20"
        rx="4"
        fill="#39d353"
      />
      <rect
        x="0"
        y="336"
        width="20"
        height="20"
        rx="4"
        fill="#0e4429"
      />
      <rect
        x="28"
        y="336"
        width="20"
        height="20"
        rx="4"
        fill="#0e4429"
      />
      <rect
        x="56"
        y="336"
        width="20"
        height="20"
        rx="4"
        fill="#0e4429"
      />
      <rect
        x="84"
        y="336"
        width="20"
        height="20"
        rx="4"
        fill="#0e4429"
      />
      <rect
        x="112"
        y="336"
        width="20"
        height="20"
        rx="4"
        fill="#0e4429"
      />
      <rect
        x="140"
        y="336"
        width="20"
        height="20"
        rx="4"
        fill="#0e4429"
      />
      <rect
        x="168"
        y="336"
        width="20"
        height="20"
        rx="4"
        fill="#0e4429"
      />
      <rect
        x="196"
        y="336"
        width="20"
        height="20"
        rx="4"
        fill="#0e4429"
      />
      <rect
        x="224"
        y="336"
        width="20"
        height="20"
        rx="4"
        fill="#0e4429"
      />
      <rect
        x="252"
        y="336"
        width="20"
        height="20"
        rx="4"
        fill="#0e4429"
      />
      <rect
        x="280"
        y="336"
        width="20"
        height="20"
        rx="4"
        fill="#0e4429"
      />
      <rect
        x="308"
        y="336"
        width="20"
        height="20"
        rx="4"
        fill="#0e4429"
      />
      <rect
        x="336"
        y="336"
        width="20"
        height="20"
        rx="4"
        fill="#39d353"
      />
      <rect
        x="364"
        y="336"
        width="20"
        height="20"
        rx="4"
        fill="#39d353"
      />
      <rect
        x="392"
        y="336"
        width="20"
        height="20"
        rx="4"
        fill="#39d353"
      />
      <rect
        x="0"
        y="364"
        width="20"
        height="20"
        rx="4"
        fill="#39d353"
      />
      <rect
        x="28"
        y="364"
        width="20"
        height="20"
        rx="4"
        fill="#39d353"
      />
      <rect
        x="56"
        y="364"
        width="20"
        height="20"
        rx="4"
        fill="#26a641"
      />
      <rect
        x="84"
        y="364"
        width="20"
        height="20"
        rx="4"
        fill="#0e4429"
      />
      <rect
        x="112"
        y="364"
        width="20"
        height="20"
        rx="4"
        fill="#0e4429"
      />
      <rect
        x="140"
        y="364"
        width="20"
        height="20"
        rx="4"
        fill="#0e4429"
      />
      <rect
        x="168"
        y="364"
        width="20"
        height="20"
        rx="4"
        fill="#0e4429"
      />
      <rect
        x="196"
        y="364"
        width="20"
        height="20"
        rx="4"
        fill="#0e4429"
      />
      <rect
        x="224"
        y="364"
        width="20"
        height="20"
        rx="4"
        fill="#0e4429"
      />
      <rect
        x="252"
        y="364"
        width="20"
        height="20"
        rx="4"
        fill="#0e4429"
      />
      <rect
        x="280"
        y="364"
        width="20"
        height="20"
        rx="4"
        fill="#0e4429"
      />
      <rect
        x="308"
        y="364"
        width="20"
        height="20"
        rx="4"
        fill="#39d353"
      />
      <rect
        x="336"
        y="364"
        width="20"
        height="20"
        rx="4"
        fill="#39d353"
      />
      <rect
        x="364"
        y="364"
        width="20"
        height="20"
        rx="4"
        fill="#39d353"
      />
      <rect
        x="392"
        y="364"
        width="20"
        height="20"
        rx="4"
        fill="#39d353"
      />
      <rect
        x="0"
        y="392"
        width="20"
        height="20"
        rx="4"
        fill="#39d353"
      />
      <rect
        x="28"
        y="392"
        width="20"
        height="20"
        rx="4"
        fill="#39d353"
      />
      <rect
        x="56"
        y="392"
        width="20"
        height="20"
        rx="4"
        fill="#39d353"
      />
      <rect
        x="84"
        y="392"
        width="20"
        height="20"
        rx="4"
        fill="#39d353"
      />
      <rect
        x="112"
        y="392"
        width="20"
        height="20"
        rx="4"
        fill="#39d353"
      />
      <rect
        x="140"
        y="392"
        width="20"
        height="20"
        rx="4"
        fill="#39d353"
      />
      <rect
        x="168"
        y="392"
        width="20"
        height="20"
        rx="4"
        fill="#39d353"
      />
      <rect
        x="196"
        y="392"
        width="20"
        height="20"
        rx="4"
        fill="#26a641"
      />
      <rect
        x="224"
        y="392"
        width="20"
        height="20"
        rx="4"
        fill="#26a641"
      />
      <rect
        x="252"
        y="392"
        width="20"
        height="20"
        rx="4"
        fill="#39d353"
      />
      <rect
        x="280"
        y="392"
        width="20"
        height="20"
        rx="4"
        fill="#39d353"
      />
      <rect
        x="308"
        y="392"
        width="20"
        height="20"
        rx="4"
        fill="#39d353"
      />
      <rect
        x="336"
        y="392"
        width="20"
        height="20"
        rx="4"
        fill="#39d353"
      />
      <rect
        x="364"
        y="392"
        width="20"
        height="20"
        rx="4"
        fill="#39d353"
      />
      <rect
        x="392"
        y="392"
        width="20"
        height="20"
        rx="4"
        fill="#39d353"
      />
  </g>
</svg>